<svg xmlns="http://www.w3.org/2000/svg" viewBox="0 0 1200 600" role="img"><title>Древнерусский город</title><rect width="1200" height="600" fill="#d6b37a"/><path d="M0 420Q260 350 520 420T1200 390V600H0Z" fill="#6d7447"/><g fill="#54372a"><path d="M180 410V250h120v160zM160 250l80-90 80 90z"/><path d="M480 410V210h140v200zM455 210l95-110 95 110z"/><path d="M820 410V270h120v140zM800 270l80-85 80 85z"/><rect x="240" y="360" width="640" height="55"/></g><g fill="#d8a85c"><rect x="220" y="300" width="35" height="55"/><rect x="535" y="270" width="35" height="60"/><rect x="860" y="315" width="35" height="50"/></g></svg>