<svg xmlns="http://www.w3.org/2000/svg" viewBox="0 0 1200 600" role="img" aria-labelledby="title desc"><title id="title">Стилизованный древнерусский город</title><desc id="desc">Кремль, башни и река на фоне закатного неба</desc><defs><linearGradient id="sky" x1="0" y1="0" x2="0" y2="1"><stop stop-color="#d9a45c"/><stop offset="1" stop-color="#7d3030"/></linearGradient><linearGradient id="river" x1="0" y1="0" x2="1" y2="0"><stop stop-color="#4c6e78"/><stop offset=".5" stop-color="#8aa4a6"/><stop offset="1" stop-color="#3d5962"/></linearGradient></defs><rect width="1200" height="600" fill="url(#sky)"/><circle cx="940" cy="135" r="70" fill="#f6d98d" opacity=".9"/><path d="M0 390Q180 330 350 385T700 370T1200 360V600H0Z" fill="#303b35" opacity=".75"/><path d="M0 455Q220 410 420 470T830 445T1200 450V600H0Z" fill="url(#river)"/><g fill="#2b201b"><path d="M150 390V210h95v180zM138 210l60-70 60 70z"/><path d="M350 390V255h120v135zM338 255l72-85 72 85z"/><path d="M590 390V185h105v205zM575 185l67-88 68 88z"/><path d="M820 390V235h115v155zM807 235l70-78 71 78z"/><path d="M1050 390V270h90v120zM1040 270l55-63 55 63z"/><rect x="190" y="320" width="905" height="70"/></g><g fill="#d5a75f"><rect x="180" y="250" width="35" height="55"/><rect x="392" y="300" width="35" height="60"/><rect x="625" y="235" width="35" height="62"/><rect x="860" y="280" width="35" height="60"/><rect x="1078" y="305" width="28" height="50"/></g><path d="M0 500Q300 455 600 510T1200 500" fill="none" stroke="#f5d48a" stroke-width="9" opacity=".35"/></svg>