<svg xmlns="http://www.w3.org/2000/svg" viewBox="0 0 1200 600" role="img"><title>Московский Кремль</title><rect width="1200" height="600" fill="#cfb98c"/><path d="M0 430Q280 380 560 430T1200 410V600H0Z" fill="#667b57"/><g fill="#8a2f2f"><rect x="180" y="300" width="840" height="120"/><path d="M240 300V190h100v110zM225 190l65-80 65 80z"/><path d="M520 300V150h120v150zM500 150l80-95 80 95z"/><path d="M820 300V210h100v90zM805 210l65-75 65 75z"/></g><g fill="#e0c36d"><rect x="270" y="235" width="38" height="58"/><rect x="560" y="205" width="40" height="70"/><rect x="850" y="250" width="36" height="50"/></g></svg>